<svg xmlns="http://www.w3.org/2000/svg" xmlns:xlink="http://www.w3.org/1999/xlink" width="500" zoomAndPan="magnify" viewBox="0 0 375 374.999991" height="500" preserveAspectRatio="xMidYMid meet" version="1.0"><path fill="#f0c31e" d="M 151.375 149.304688 C 172.507812 129.191406 205.902344 130.058594 225.96875 151.238281 C 246.03125 172.417969 245.167969 205.894531 224.035156 226.007812 C 202.90625 246.121094 169.511719 245.253906 149.445312 224.074219 C 129.382812 202.890625 130.246094 169.417969 151.375 149.304688 " fill-opacity="1" fill-rule="nonzero"/><path fill="#f6b713" d="M 178.015625 136 C 168.167969 137.835938 159.050781 142.476562 151.613281 149.554688 C 130.65625 169.503906 129.796875 202.824219 149.695312 223.835938 C 169.597656 244.84375 202.839844 245.707031 223.796875 225.757812 C 244.757812 205.808594 245.617188 172.484375 225.714844 151.476562 C 216.074219 141.300781 203.058594 135.492188 189.0625 135.132812 C 185.316406 135.035156 181.617188 135.332031 178.015625 136 Z M 197.496094 239.960938 C 180.386719 243.152344 162.046875 237.878906 149.195312 224.3125 C 129.035156 203.027344 129.90625 169.265625 151.140625 149.054688 L 151.378906 149.304688 L 151.140625 149.054688 C 161.425781 139.261719 174.902344 134.070312 189.082031 134.441406 C 203.261719 134.808594 216.449219 140.6875 226.214844 151 C 235.984375 161.3125 241.160156 174.820312 240.792969 189.03125 C 240.425781 203.246094 234.558594 216.46875 224.273438 226.257812 C 216.574219 233.589844 207.230469 238.148438 197.496094 239.960938 " fill-opacity="1" fill-rule="nonzero"/><path fill="#e5a012" d="M 214.449219 146.445312 C 234.515625 167.625 233.652344 201.101562 212.519531 221.214844 C 198.519531 234.542969 179.132812 238.648438 161.804688 233.742188 C 181.460938 244.851562 206.820312 242.394531 224.035156 226.007812 C 245.167969 205.894531 246.03125 172.417969 225.96875 151.238281 C 219.199219 144.09375 210.910156 139.269531 202.09375 136.773438 C 206.558594 139.296875 210.734375 142.519531 214.449219 146.445312 " fill-opacity="1" fill-rule="nonzero"/><path fill="#f68544" d="M 215.058594 189.054688 C 210.378906 189.199219 206.671875 192.296875 206.785156 195.976562 C 206.898438 199.652344 210.785156 202.519531 215.464844 202.375 C 220.148438 202.230469 223.851562 199.132812 223.742188 195.457031 C 223.628906 191.777344 219.742188 188.910156 215.058594 189.054688 Z M 158.242188 188.894531 C 153.558594 189.035156 149.855469 192.136719 149.96875 195.8125 C 150.078125 199.492188 153.964844 202.355469 158.648438 202.210938 C 163.332031 202.070312 167.035156 198.972656 166.921875 195.292969 C 166.8125 191.617188 162.925781 188.75 158.242188 188.894531 " fill-opacity="1" fill-rule="nonzero"/><path fill="#f25b2a" d="M 161.847656 193.039062 C 161.066406 193.523438 160.34375 194.085938 159.722656 194.769531 C 159.054688 195.503906 158.519531 196.289062 158.074219 197.175781 C 157.972656 197.378906 158.019531 197.710938 158.113281 197.90625 C 158.210938 198.109375 158.421875 198.3125 158.640625 198.382812 C 158.875 198.453125 159.148438 198.464844 159.371094 198.339844 C 159.601562 198.214844 159.726562 198.042969 159.84375 197.8125 C 159.832031 197.832031 159.824219 197.851562 159.816406 197.867188 C 159.824219 197.855469 159.828125 197.847656 159.835938 197.828125 C 159.859375 197.78125 159.886719 197.734375 159.910156 197.691406 C 159.957031 197.605469 160.003906 197.523438 160.054688 197.441406 C 160.152344 197.277344 160.253906 197.117188 160.363281 196.960938 C 160.476562 196.796875 160.597656 196.632812 160.722656 196.476562 C 160.78125 196.402344 160.839844 196.328125 160.902344 196.257812 C 160.917969 196.238281 160.933594 196.21875 160.949219 196.195312 C 160.957031 196.1875 160.972656 196.175781 160.996094 196.148438 C 161.261719 195.863281 161.542969 195.59375 161.84375 195.339844 C 161.992188 195.21875 162.140625 195.101562 162.292969 194.988281 C 162.355469 194.945312 162.421875 194.902344 162.488281 194.855469 C 162.460938 194.871094 162.453125 194.875 162.507812 194.835938 C 162.519531 194.832031 162.527344 194.828125 162.535156 194.820312 C 162.539062 194.816406 162.546875 194.8125 162.554688 194.808594 C 162.550781 194.808594 162.546875 194.8125 162.542969 194.816406 C 162.585938 194.789062 162.628906 194.761719 162.671875 194.734375 C 162.886719 194.601562 163.054688 194.453125 163.144531 194.207031 C 163.222656 193.988281 163.21875 193.683594 163.105469 193.476562 C 162.882812 193.0625 162.296875 192.761719 161.847656 193.039062 Z M 162.488281 194.855469 C 162.503906 194.84375 162.523438 194.832031 162.542969 194.816406 C 162.539062 194.816406 162.535156 194.820312 162.535156 194.820312 C 162.519531 194.835938 162.503906 194.84375 162.488281 194.855469 Z M 214.621094 193.574219 C 214.644531 193.550781 214.667969 193.523438 214.691406 193.496094 C 214.765625 193.414062 214.84375 193.332031 214.917969 193.25 C 215.230469 192.917969 215.554688 192.59375 215.886719 192.277344 C 216.246094 191.941406 216.34375 191.332031 215.984375 190.949219 C 215.644531 190.589844 215.039062 190.492188 214.65625 190.851562 C 213.285156 192.144531 212.066406 193.605469 211.054688 195.195312 C 210.792969 195.613281 210.859375 196.230469 211.300781 196.507812 C 211.71875 196.769531 212.324219 196.707031 212.605469 196.265625 C 213.085938 195.511719 213.605469 194.789062 214.171875 194.101562 C 214.304688 193.9375 214.441406 193.777344 214.582031 193.621094 C 214.597656 193.601562 214.609375 193.589844 214.621094 193.574219 Z M 220.628906 192.671875 C 220.296875 192.320312 219.679688 192.203125 219.300781 192.574219 C 217.890625 193.960938 216.542969 195.417969 215.265625 196.933594 C 214.945312 197.308594 215.105469 197.992188 215.507812 198.242188 C 215.976562 198.535156 216.472656 198.402344 216.816406 198 C 217.117188 197.640625 217.425781 197.289062 217.734375 196.9375 C 217.765625 196.898438 217.785156 196.878906 217.789062 196.875 C 217.8125 196.847656 217.839844 196.816406 217.863281 196.789062 C 217.941406 196.703125 218.019531 196.617188 218.101562 196.527344 C 218.257812 196.355469 218.414062 196.183594 218.574219 196.011719 C 219.210938 195.328125 219.863281 194.65625 220.53125 194 C 220.882812 193.65625 220.992188 193.058594 220.628906 192.671875 Z M 158.210938 193.390625 C 158.21875 193.382812 158.257812 193.339844 158.273438 193.320312 C 158.292969 193.300781 158.3125 193.277344 158.320312 193.269531 C 158.363281 193.222656 158.410156 193.171875 158.453125 193.121094 C 158.617188 192.945312 158.78125 192.765625 158.949219 192.59375 C 159.285156 192.234375 159.417969 191.65625 159.046875 191.261719 C 158.722656 190.921875 158.082031 190.78125 157.71875 191.164062 C 156.351562 192.605469 155.089844 194.144531 153.960938 195.785156 C 153.679688 196.191406 153.773438 196.824219 154.203125 197.09375 C 154.636719 197.367188 155.210938 197.285156 155.511719 196.851562 C 156.042969 196.078125 156.605469 195.324219 157.195312 194.589844 C 157.484375 194.238281 157.777344 193.886719 158.078125 193.542969 C 158.121094 193.492188 158.167969 193.441406 158.210938 193.390625 " fill-opacity="1" fill-rule="nonzero"/><path fill="#f4da63" d="M 187.382812 138.972656 C 189.605469 139.402344 192.078125 140.40625 192.75 142.578125 C 193.167969 143.925781 192.746094 145.425781 191.957031 146.59375 C 191.164062 147.765625 190.042969 148.660156 188.917969 149.511719 C 183.34375 153.742188 177.039062 157.480469 170.070312 158.066406 C 167.492188 158.28125 164.703125 157.988281 162.703125 156.347656 C 157.957031 152.449219 162.035156 147.585938 165.402344 144.796875 C 169.296875 141.570312 174.113281 139.464844 179.121094 138.773438 C 181.859375 138.398438 184.664062 138.445312 187.382812 138.972656 " fill-opacity="1" fill-rule="nonzero"/><path fill="#100f0d" d="M 217.945312 183.617188 C 216.429688 178.910156 212.398438 175.011719 207.21875 175.164062 C 202.421875 175.308594 198.429688 179.214844 198.785156 184.132812 C 198.871094 185.339844 200.71875 184.984375 200.632812 183.785156 C 200.355469 179.910156 203.917969 176.949219 207.589844 177.042969 C 211.65625 177.144531 214.886719 180.199219 216.097656 183.960938 C 216.464844 185.101562 218.320312 184.769531 217.945312 183.617188 Z M 174.757812 183.914062 C 174.675781 185.125 176.550781 185.285156 176.632812 184.074219 C 176.96875 179.144531 172.730469 175.164062 167.921875 175.21875 C 162.929688 175.277344 158.96875 178.933594 157.496094 183.558594 C 157.125 184.710938 158.898438 185.351562 159.265625 184.195312 C 160.445312 180.488281 163.445312 177.359375 167.480469 177.109375 C 171.339844 176.867188 175.035156 179.867188 174.757812 183.914062 Z M 196.601562 204.246094 C 194.835938 207.738281 191.347656 210.625 187.34375 210.871094 C 183.78125 211.09375 180.160156 209.050781 178.824219 205.691406 C 178.378906 204.5625 176.6875 205.390625 177.132812 206.515625 C 178.75 210.582031 183.175781 212.980469 187.445312 212.738281 C 192.257812 212.46875 196.265625 209.058594 198.371094 204.882812 C 198.917969 203.800781 197.140625 203.175781 196.601562 204.246094 " fill-opacity="1" fill-rule="nonzero"/></svg>